<?xml version="1.0" standalone="no"?>
<!DOCTYPE svg PUBLIC "-//W3C//DTD SVG 20010904//EN"
 "http://www.w3.org/TR/2001/REC-SVG-20010904/DTD/svg10.dtd">
<svg version="1.0" xmlns="http://www.w3.org/2000/svg"
 width="270.000000pt" height="260.000000pt" viewBox="0 0 270.000000 260.000000"
 preserveAspectRatio="xMidYMid meet">

<g transform="translate(0.000000,260.000000) scale(0.100000,-0.100000)"
fill="#000000" stroke="none">
<path d="M531 2587 c-7 -10 -12 -150 -13 -458 l-3 -444 -60 -3 c-33 -2 -64 -7
-69 -12 -6 -6 9 -33 37 -68 25 -33 43 -62 40 -66 -3 -3 -30 -6 -59 -6 -41 0
-59 -5 -81 -24 l-28 -24 -3 -467 -3 -467 42 -55 c99 -127 258 -251 433 -334
456 -218 998 -126 1368 231 l78 75 0 81 0 81 42 6 c26 3 51 15 67 31 25 26 26
30 26 156 0 126 -1 130 -26 156 -16 16 -41 28 -67 31 l-41 5 -3 235 -3 235
-28 24 -28 24 -604 0 c-332 0 -606 4 -609 8 -3 4 16 34 40 65 25 31 43 61 39
67 -3 5 -35 10 -71 10 l-64 0 0 448 c0 335 -3 451 -12 460 -18 18 -322 17
-337 -1z m1299 -1347 c0 -5 -4 -10 -10 -10 -5 0 -10 5 -10 10 0 6 5 10 10 10
6 0 10 -4 10 -10z m-429 -349 c31 -31 39 -83 19 -122 -12 -22 -61 -49 -89 -49
-88 0 -134 109 -72 171 41 41 101 41 142 0z"/>
</g>
</svg>
